Coordinates
version=1
nRows=13
nColumns=40
inDegrees=yes

Units are S.I. units (second, meters, Newtons, ...)
Angles are in degrees.

endheader
time	pelvis_tilt	pelvis_list	pelvis_rotation	pelvis_tx	pelvis_ty	pelvis_tz	hip_flexion_r	hip_adduction_r	hip_rotation_r	knee_angle_r	knee_angle_r_beta	ankle_angle_r	subtalar_angle_r	mtp_angle_r	hip_flexion_l	hip_adduction_l	hip_rotation_l	knee_angle_l	knee_angle_l_beta	ankle_angle_l	subtalar_angle_l	mtp_angle_l	lumbar_extension	lumbar_bending	lumbar_rotation	arm_flex_r	arm_add_r	arm_rot_r	elbow_flex_r	pro_sup_r	wrist_flex_r	wrist_dev_r	arm_flex_l	arm_add_l	arm_rot_l	elbow_flex_l	pro_sup_l	wrist_flex_l	wrist_dev_l
     49.66000000	     -4.46659513	     -2.58693157	     -2.35923510	      1.12858844	      0.92310432	      0.43465663	     31.45744339	     -4.33752927	    -12.47197388	     15.65099841	     15.65099841	      3.72479212	      3.09050317	     10.94671411	     -1.82387242	     -0.95802983	    -13.57919352	      8.83789604	      8.83789604	     16.32505490	     -3.07223603	     -7.64892606	    -10.36994150	      5.80335527	      2.08741180	    -19.02969223	    -11.88739150	    -18.54555594	     19.10518248	     48.00057882	      0.00000000	      0.00000000	     34.32030859	    -20.37885779	     -2.88617197	     81.84446656	     47.56406160	      0.00000000	      0.00000000
     49.67185714	     -4.41141913	     -2.47415679	     -2.50810460	      1.12962099	      0.92115657	      0.43643982	     30.86638647	     -3.97468893	    -13.06983123	     14.55276072	     14.55276072	      3.97467723	      3.76860436	     11.35712277	     -2.73236439	     -0.89539275	    -13.75167747	      8.70094255	      8.70094255	     16.90701647	     -2.82219736	     -7.58434658	    -10.28587487	      5.65010319	      2.32886860	    -20.50254108	    -11.76557277	    -18.82179310	     19.09986729	     48.00534976	      0.00000000	      0.00000000	     34.83403119	    -20.42216152	     -3.24469056	     83.56364892	     47.63199950	      0.00000000	      0.00000000
     49.68371429	     -4.40568226	     -2.42451585	     -2.62582729	      1.13077110	      0.91916183	      0.43848247	     30.40953207	     -3.59206838	    -13.50833729	     14.08813515	     14.08813515	      4.10197449	      3.96785529	     11.31348545	     -3.49268242	     -0.95500441	    -13.90467802	      8.77106688	      8.77106688	     17.60026537	     -2.62494690	     -7.38237380	    -10.15795704	      5.53500119	      2.45523380	    -21.76584076	    -11.63483379	    -19.09887536	     19.28175842	     48.00266881	      0.00000000	      0.00000000	     35.13736977	    -20.49504997	     -3.67655807	     85.28366454	     47.70357201	      0.00000000	      0.00000000
     49.69557143	     -4.41657220	     -2.43970289	     -2.72353222	      1.13202243	      0.91726753	      0.44070867	     30.04618088	     -3.19532071	    -13.72503176	     14.15880836	     14.15880836	      3.85793340	      3.73615819	     10.46796338	     -4.12127841	     -1.14734027	    -14.10239739	      9.11198338	      9.11198338	     18.48131689	     -2.23043171	     -6.76704225	     -9.96308571	      5.45444032	      2.49915087	    -22.83479009	    -11.50258574	    -19.46414552	     19.79749043	     47.99003672	      0.00000000	      0.00000000	     35.03808754	    -20.51688538	     -4.30754168	     87.40598513	     47.79847792	      0.00000000	      0.00000000
     49.70742857	     -4.47105793	     -2.50389171	     -2.74676098	      1.13343459	      0.91545550	      0.44310653	     29.57873268	     -2.75128019	    -13.75572475	     14.20564405	     14.20564405	      2.56584889	      2.99153691	      6.99491022	     -4.55388943	     -1.50911347	    -14.63938971	      9.83324823	      9.83324823	     20.04638288	     -1.10465270	     -4.86522123	     -9.71539602	      5.48023318	      1.89847656	    -23.42323999	    -11.53445621	    -20.03688717	     20.60393479	     47.96277997	      0.00000000	      0.00000000	     34.34962140	    -21.04431711	     -5.58436091	     89.46686298	     47.95774835	      0.00000000	      0.00000000
     49.71928571	     -4.49866169	     -2.66499521	     -2.74576217	      1.13483278	      0.91391133	      0.44555649	     29.28870486	     -2.36373403	    -13.89655199	     14.95788254	     14.95788254	      2.30197594	      2.54094250	      6.46848821	     -5.12960113	     -1.88625057	    -14.54843294	     10.20676329	     10.20676329	     20.49516377	     -1.24565878	     -4.80015892	     -9.47591186	      5.60406653	      2.07863049	    -23.89783168	    -11.41201287	    -20.04661622	     20.31559117	     47.96697038	      0.00000000	      0.00000000	     34.45259643	    -20.90108783	     -5.69245731	     90.01142994	     47.98033762	      0.00000000	      0.00000000
     49.73114286	     -4.56527577	     -2.79684467	     -2.75949783	      1.13642475	      0.91242593	      0.44824446	     28.84928516	     -1.89074815	    -13.55736640	     15.31152635	     15.31152635	      0.10354959	      1.05377848	      0.80339953	     -5.38874828	     -2.40951407	    -15.06679000	     11.27781464	     11.27781464	     22.02472077	     -0.29051891	     -2.80712154	     -9.21472151	      5.69120700	      1.78433838	    -23.63232512	    -11.35975507	    -20.23492451	     19.68821946	     47.97252604	      0.00000000	      0.00000000	     33.54177444	    -20.96839299	     -6.74152748	     91.95133250	     48.13063788	      0.00000000	      0.00000000
     49.74300000	     -4.65243057	     -2.98835404	     -2.66010453	      1.13782560	      0.91130474	      0.45085743	     28.68455925	     -1.54900404	    -13.37991973	     16.33991189	     16.33991189	     -0.31369339	      0.11104124	     -0.05737041	     -5.61879774	     -2.94316634	    -14.89904841	     12.17099265	     12.17099265	     22.43799041	     -0.53931632	     -2.72836233	     -8.97833044	      5.81621370	      1.96334554	    -23.68762524	    -11.23506690	    -20.24750774	     19.40826592	     47.97666214	      0.00000000	      0.00000000	     33.33985141	    -20.61404007	     -6.90070934	     92.69313369	     48.16592097	      0.00000000	      0.00000000
     49.75485714	     -4.70045328	     -3.21384675	     -2.59766462	      1.13927501	      0.91059359	      0.45362381	     28.49507186	     -1.18560418	    -13.17998687	     17.41796054	     17.41796054	     -0.61518799	     -0.72759979	     -0.88961288	     -5.78077257	     -3.55880698	    -14.82680212	     13.29052414	     13.29052414	     22.74941456	     -0.79983691	     -2.69451026	     -8.79525921	      5.99812280	      2.06370493	    -23.37103943	    -11.09000183	    -20.24084450	     19.23667880	     47.98193082	      0.00000000	      0.00000000	     32.82303805	    -20.33329071	     -7.16276663	     93.30985068	     48.19946709	      0.00000000	      0.00000000
     49.76671429	     -4.59763915	     -3.46085964	     -2.56225378	      1.14101718	      0.91080698	      0.45654438	     27.94530738	     -0.80412261	    -13.13707726	     18.17504851	     18.17504851	     -0.58283616	     -0.96042371	     -1.15937573	     -6.29826249	     -4.13969259	    -14.80474191	     14.00965702	     14.00965702	     22.58693701	     -1.10440605	     -2.66216714	     -8.74512986	      6.14496100	      2.26273618	    -22.83533459	    -10.87161952	    -20.20002901	     19.34066124	     47.97682807	      0.00000000	      0.00000000	     32.11207774	    -19.97148690	     -7.07961234	     93.29332473	     48.19096112	      0.00000000	      0.00000000
     49.77857143	     -4.73005381	     -3.75281245	     -2.43079996	      1.14219288	      0.91052091	      0.45946240	     27.96313055	     -0.40792678	    -12.80416914	     19.40352270	     19.40352270	     -0.51118458	     -2.11701314	     -1.90017301	     -5.66677443	     -5.05979995	    -14.53441474	     16.42242378	     16.42242378	     22.77338182	     -1.76513362	     -3.13084839	     -8.56098142	      6.44011149	      2.34881370	    -22.18032538	    -10.88134552	    -20.16722407	     19.11475047	     47.98962947	      0.00000000	      0.00000000	     31.34953979	    -19.62340489	     -7.55005341	     93.99598176	     48.23571008	      0.00000000	      0.00000000
     49.79042857	     -4.80539818	     -4.02087939	     -2.35305788	      1.14354773	      0.91105804	      0.46255083	     27.62735212	      0.06411436	    -12.38322011	     20.05532582	     20.05532582	     -0.40077154	     -3.10035457	     -2.47558825	     -5.16127894	     -5.96419657	    -14.51956819	     18.65840018	     18.65840018	     22.40954102	     -2.23597777	     -3.84564760	     -8.36460192	      6.64385956	      2.12732382	    -20.87662575	    -10.84947655	    -20.08522523	     18.78283988	     48.00925526	      0.00000000	      0.00000000	     29.87780910	    -19.26165223	     -8.24210093	     94.54428121	     48.29069611	      0.00000000	      0.00000000
     49.80228571	     -4.54703088	     -4.28293028	     -2.27460429	      1.14503560	      0.91242320	      0.46568029	     26.88676252	      0.45929272	    -12.28906837	     20.67833906	     20.67833906	      0.14475725	     -3.43389177	     -2.80548044	     -4.95116382	     -6.82456613	    -14.22860333	     20.98497738	     20.98497738	     21.74465239	     -3.07386180	     -4.40364425	     -8.64141145	      6.85708639	      2.36470293	    -19.70848713	    -10.83627731	    -20.00950325	     18.86757194	     48.00988123	      0.00000000	      0.00000000	     28.79327790	    -18.87055493	     -8.37470393	     94.46371204	     48.29442449	      0.00000000	      0.00000000
